<svg width="173" height="30" viewBox="0 0 173 30" fill="none" xmlns="http://www.w3.org/2000/svg">
<path d="M13.3705 4.52781V17.1363V25.7274H4.98076C5.39601 23.6772 6.40043 21.7906 7.90923 20.2792C9.41804 18.7677 11.2986 17.7623 13.3422 17.3501C13.3314 17.2803 13.3205 17.2083 13.3096 17.1385H5.01772C4.97859 17.1778 4.93945 17.217 4.89814 17.2563C3.52413 18.6325 2.44362 20.2377 1.68922 22.0218C0.906551 23.8713 0.508696 25.8364 0.504348 27.8604L0.5 30H17.5643H17.5925V17.1363H17.5969V16.988L17.5947 14.9989V4.49291H17.6034H17.6317V4.48637H26.0214C25.6083 6.53653 24.6017 8.42312 23.0929 9.93457C22.0103 11.0185 20.7384 11.843 19.3492 12.373V12.8615H26.1953C27.5237 11.5071 28.5716 9.93675 29.3108 8.19193C30.0934 6.34242 30.4913 4.37732 30.4957 2.35333L30.5 0.213741H13.3705V4.52781Z" fill="#273339"/>
<path d="M13.3706 17.3435V17.1363H13.3119C13.3228 17.2061 13.3337 17.2781 13.3445 17.3479C13.3511 17.3479 13.3598 17.3457 13.3706 17.3435Z" fill="#273339"/>
<path d="M13.3097 17.1363H13.3684V4.52781C13.3249 4.48201 13.2792 4.4362 13.2336 4.3904C11.8617 3.01418 10.2616 1.93457 8.48106 1.17993C6.63527 0.396947 4.67426 0 2.65672 0H0.504395V17.1363H5.01777H13.3097ZM4.76557 12.8637V4.47983C6.82007 4.88986 8.71151 5.89531 10.2268 7.41549C11.7356 8.92694 12.7422 10.8135 13.1553 12.8637H4.76557Z" fill="#273339"/>
<path d="M19.3491 17.1363H26.0235V25.518C23.969 25.1101 22.0776 24.1025 20.5623 22.5823C20.1122 22.1309 19.7078 21.6489 19.3491 21.1363V27.145C20.2644 27.8124 21.2558 28.373 22.308 28.8179C24.1538 29.6009 26.1127 29.9978 28.1324 29.9978H30.2825V12.8637H26.1953H19.3491V17.1363Z" fill="#273339"/>
<path d="M17.6035 30H17.6297V17.1363H17.634V16.988L17.6297 15.0011V4.49291H17.6035V30Z" fill="white"/>
<path d="M151.809 29.5319V0H157.777V18.9207L155.549 18.2185L165.139 8.23147H172.5L164.621 16.814L172.46 29.5319H165.696L159.13 18.7256L162.592 17.8674L155.947 24.9675L157.777 21.5735V29.5319H151.809Z" fill="#1E292E"/>
<path d="M129.182 29.5319V8.23146H134.753V12.4447L134.435 11.5084C134.939 10.2341 135.748 9.29778 136.862 8.6996C138.003 8.07542 139.329 7.76332 140.841 7.76332C142.486 7.76332 143.918 8.10142 145.139 8.77763C146.385 9.45383 147.354 10.4031 148.043 11.6255C148.733 12.8218 149.078 14.2263 149.078 15.8387V29.5319H143.109V17.0871C143.109 16.2549 142.937 15.5397 142.592 14.9415C142.274 14.3433 141.809 13.8752 141.199 13.5371C140.616 13.199 139.926 13.0299 139.13 13.0299C138.361 13.0299 137.671 13.199 137.061 13.5371C136.451 13.8752 135.973 14.3433 135.629 14.9415C135.31 15.5397 135.151 16.2549 135.151 17.0871V29.5319H129.182Z" fill="#1E292E"/>
<path d="M120.04 29.5319V8.23147H126.008V29.5319H120.04ZM120.04 6.31989V0.468136H126.008V6.31989H120.04Z" fill="#1E292E"/>
<path d="M99.9106 29.5319V0.468136H106.078V24.2653H118.612V29.5319H99.9106Z" fill="#1E292E"/>
<path d="M86.8063 30C84.4985 30 82.4957 29.5058 80.7979 28.5176C79.1002 27.5033 77.7871 26.1508 76.8586 24.4603C75.9302 22.7698 75.4659 20.8973 75.4659 18.8426C75.4659 16.71 75.9434 14.8114 76.8984 13.1469C77.8799 11.4824 79.193 10.169 80.8377 9.20676C82.4824 8.24447 84.3393 7.76332 86.4084 7.76332C88.1327 7.76332 89.658 8.03641 90.9844 8.58257C92.3107 9.10273 93.4249 9.84395 94.3268 10.8062C95.2553 11.7685 95.9582 12.8869 96.4357 14.1612C96.9132 15.4096 97.152 16.775 97.152 18.2575C97.152 18.6736 97.1254 19.0897 97.0724 19.5058C97.0458 19.896 96.9795 20.2341 96.8734 20.5202H80.599V16.2289H93.4912L90.666 18.2575C90.9313 17.1391 90.9181 16.1508 90.6263 15.2926C90.3345 14.4083 89.8172 13.7191 89.0744 13.225C88.3582 12.7048 87.4695 12.4447 86.4084 12.4447C85.3739 12.4447 84.4852 12.6918 83.7424 13.186C82.9997 13.6801 82.4426 14.4083 82.0712 15.3706C81.6998 16.3329 81.5539 17.5032 81.6335 18.8817C81.5274 20.078 81.6733 21.1313 82.0712 22.0416C82.4691 22.9519 83.0793 23.6671 83.9016 24.1873C84.7239 24.6814 85.7187 24.9285 86.8859 24.9285C87.947 24.9285 88.8489 24.7204 89.5917 24.3043C90.361 23.8882 90.9578 23.316 91.3823 22.5878L96.1572 24.8114C95.7328 25.8518 95.0563 26.762 94.1279 27.5423C93.2259 28.3225 92.1516 28.9337 90.9048 29.3758C89.658 29.7919 88.2919 30 86.8063 30Z" fill="#1E292E"/>
<path d="M50.5 29.5319V0.468136H63.0341C65.0767 0.468136 66.8275 0.806238 68.2865 1.48244C69.7455 2.15865 70.8597 3.13394 71.6289 4.40832C72.3982 5.6567 72.7829 7.17815 72.7829 8.97269C72.7829 10.2471 72.4248 11.4694 71.7085 12.6398C70.9923 13.7841 69.8118 14.7464 68.1671 15.5267V12.5618C69.7322 13.1599 70.9392 13.8752 71.7881 14.7074C72.637 15.5397 73.2206 16.4499 73.5389 17.4382C73.8572 18.4005 74.0164 19.4148 74.0164 20.4811C74.0164 23.342 73.0482 25.5657 71.1117 27.1521C69.1752 28.7386 66.4827 29.5319 63.0341 29.5319H50.5ZM56.6676 24.2653H63.7504C64.9971 24.2653 65.9919 23.9142 66.7347 23.212C67.4774 22.5098 67.8488 21.5995 67.8488 20.4811C67.8488 19.3368 67.4774 18.4135 66.7347 17.7113C65.9919 17.0091 64.9971 16.658 63.7504 16.658H56.6676V24.2653ZM56.6676 11.3914H63.4718C64.4268 11.3914 65.1828 11.1313 65.7399 10.6112C66.3235 10.065 66.6153 9.3498 66.6153 8.46554C66.6153 7.58127 66.3235 6.87906 65.7399 6.35891C65.1828 5.81274 64.4268 5.53966 63.4718 5.53966H56.6676V11.3914Z" fill="#1E292E"/>
</svg>
