<svg width="44" height="34" viewBox="0 0 44 34" fill="none" xmlns="http://www.w3.org/2000/svg">
<path d="M42.2162 21.4594H38.7336V16.9575C38.7336 16.4478 38.3938 16.1081 37.8842 16.1081H22.8494V12.4556H26.332C27.3513 12.4556 28.1158 11.6911 28.1158 10.6718V2.09262C28.1158 1.07332 27.3513 0.308838 26.332 0.308838H17.668C16.6486 0.308838 15.8842 1.07332 15.8842 2.09262V10.7567C15.8842 11.776 16.6486 12.5405 17.668 12.5405H21.1506V16.1081H6.11583C5.60618 16.1081 5.26641 16.4478 5.26641 16.9575V21.4594H1.78378C0.764479 21.4594 0 22.2239 0 23.2432V31.9073C0 32.9266 0.764479 33.6911 1.78378 33.6911H10.4479C11.4672 33.6911 12.2317 32.9266 12.2317 31.9073V23.2432C12.2317 22.2239 11.4672 21.4594 10.4479 21.4594H6.96525V17.8069H21.1506V21.4594H17.668C16.6486 21.4594 15.8842 22.2239 15.8842 23.2432V31.9073C15.8842 32.9266 16.6486 33.6911 17.668 33.6911H26.332C27.3513 33.6911 28.1158 32.9266 28.1158 31.9073V23.2432C28.1158 22.2239 27.3513 21.4594 26.332 21.4594H22.8494V17.8069H37.0347V21.4594H33.5521C32.5328 21.4594 31.7683 22.2239 31.7683 23.2432V31.9073C31.7683 32.9266 32.5328 33.6911 33.5521 33.6911H42.2162C43.2355 33.6911 44 32.9266 44 31.9073V23.2432C44 22.2239 43.1506 21.4594 42.2162 21.4594ZM10.5328 23.2432C10.4479 23.1583 10.5328 23.1583 10.5328 23.2432V31.9073C10.5328 31.9922 10.5328 31.9922 10.4479 31.9922H1.78378C1.69884 31.9922 1.69884 31.9922 1.69884 31.9073V23.2432C1.69884 23.1583 1.69884 23.1583 1.78378 23.1583L10.5328 23.2432ZM26.417 23.2432C26.332 23.1583 26.417 23.1583 26.417 23.2432V31.9073C26.417 31.9922 26.417 31.9922 26.332 31.9922H17.668C17.583 31.9922 17.583 31.9922 17.583 31.9073V23.2432C17.583 23.1583 17.583 23.1583 17.668 23.1583L26.417 23.2432ZM17.583 10.6718C17.583 10.7567 17.668 10.7567 17.583 10.6718V2.09262C17.583 2.00768 17.583 2.00768 17.668 2.00768H26.332C26.417 2.00768 26.417 2.00768 26.417 2.09262V10.7567C26.417 10.8417 26.417 10.8417 26.332 10.8417L17.583 10.6718ZM42.3012 31.8223C42.2162 31.9073 42.3012 31.9073 42.3012 31.8223L33.5521 31.9073C33.4672 31.9073 33.4672 31.9073 33.4672 31.8223V23.2432C33.4672 23.1583 33.4672 23.1583 33.5521 23.1583H42.2162C42.3012 23.1583 42.3012 23.1583 42.3012 23.2432V31.8223Z" fill="black"/>
</svg>
