<svg width="40" height="40" viewBox="0 0 40 40" fill="none" xmlns="http://www.w3.org/2000/svg">
<path d="M32 16C36.4115 16 40 12.4114 40 8C40 3.58858 36.4114 0 32 0C28.7966 0 26.0345 1.89683 24.7582 4.62275L22.6159 3.832C22.6412 3.668 22.6667 3.50392 22.6667 3.33333C22.6667 1.49542 21.1713 0 19.3333 0C17.4954 0 16 1.49542 16 3.33333C16 5.17125 17.4954 6.66667 19.3333 6.66667C20.5273 6.66667 21.5687 6.03 22.1573 5.084L24.2959 5.87333C24.1081 6.55208 24 7.26267 24 8C24 8.87333 24.1452 9.71192 24.4053 10.4993L17.0733 13.6068C15.7308 11.0686 13.0661 9.33333 10 9.33333C9.0065 9.33333 8.05858 9.52417 7.18 9.85608L5.33592 5.98083C6.13925 5.37142 6.66667 4.41667 6.66667 3.33333C6.66667 1.49542 5.17125 0 3.33333 0C1.49542 0 0 1.49542 0 3.33333C0 5.17125 1.49542 6.66667 3.33333 6.66667C3.61067 6.66667 3.87667 6.62275 4.13475 6.55792L5.97658 10.4293C3.6025 11.8187 2 14.3893 2 17.3333C2 20.0987 3.41083 22.5394 5.5495 23.9766L4.33 26.1686C4.01267 26.0687 3.6825 26 3.33333 26C1.49542 26 0 27.4954 0 29.3333C0 31.1713 1.49542 32.6667 3.33333 32.6667C5.17125 32.6667 6.66667 31.1713 6.66667 29.3333C6.66667 28.3239 6.20608 27.4288 5.49542 26.8174L6.71742 24.6208C7.72008 25.0746 8.82942 25.3333 10 25.3333C11.8294 25.3333 13.5121 24.7093 14.8613 23.6718L17.4853 26.5586C16.1546 27.9879 15.3333 29.8975 15.3333 32C15.3333 32.4079 15.374 32.8053 15.4326 33.1967L12.3454 33.9293C11.8142 32.7933 10.6679 32 9.33333 32C7.49542 32 6 33.4954 6 35.3333C6 37.1713 7.49542 38.6667 9.33333 38.6667C11.1713 38.6667 12.6667 37.1713 12.6667 35.3333C12.6667 35.2966 12.6566 35.2621 12.6559 35.2253L15.7373 34.4948C16.7881 37.6871 19.7933 40 23.3333 40C27.7448 40 31.3333 36.4114 31.3333 32C31.3333 30.6322 30.9873 29.3441 30.3792 28.2175L34.2953 25.6713C34.9008 26.2846 35.7393 26.6667 36.6667 26.6667C38.5046 26.6667 40 25.1713 40 23.3333C40 21.4954 38.5046 20 36.6667 20C34.8288 20 33.3333 21.4954 33.3333 23.3333C33.3333 23.764 33.4219 24.1732 33.5713 24.5514L29.6462 27.1032C28.8565 26.0874 27.8348 25.2759 26.6667 24.7367L29.9206 15.7162C30.5847 15.8952 31.2799 16 32 16ZM19.3333 5.33333C18.2308 5.33333 17.3333 4.43583 17.3333 3.33333C17.3333 2.23083 18.2308 1.33333 19.3333 1.33333C20.4358 1.33333 21.3333 2.23083 21.3333 3.33333C21.3333 4.43583 20.4358 5.33333 19.3333 5.33333ZM1.33333 3.33333C1.33333 2.23083 2.23083 1.33333 3.33333 1.33333C4.43583 1.33333 5.33333 2.23083 5.33333 3.33333C5.33333 4.43583 4.43583 5.33333 3.33333 5.33333C2.23083 5.33333 1.33333 4.43583 1.33333 3.33333ZM3.33333 31.3333C2.23083 31.3333 1.33333 30.4358 1.33333 29.3333C1.33333 28.2308 2.23083 27.3333 3.33333 27.3333C4.43583 27.3333 5.33333 28.2308 5.33333 29.3333C5.33333 30.4358 4.43583 31.3333 3.33333 31.3333ZM9.33333 37.3333C8.23083 37.3333 7.33333 36.4358 7.33333 35.3333C7.33333 34.2308 8.23083 33.3333 9.33333 33.3333C10.4358 33.3333 11.3333 34.2308 11.3333 35.3333C11.3333 36.4358 10.4358 37.3333 9.33333 37.3333ZM36.6667 21.3333C37.7692 21.3333 38.6667 22.2308 38.6667 23.3333C38.6667 24.4358 37.7692 25.3333 36.6667 25.3333C35.5642 25.3333 34.6667 24.4358 34.6667 23.3333C34.6667 22.2308 35.5642 21.3333 36.6667 21.3333ZM28.0739 13.376C28.3714 11.834 29.7308 10.6667 31.3333 10.6667H32.6667C34.2692 10.6667 35.6286 11.834 35.9261 13.376C34.8233 14.1832 33.4688 14.6667 32 14.6667C30.5313 14.6667 29.1768 14.1833 28.0739 13.376ZM32 9.33333C30.8975 9.33333 30 8.43583 30 7.33333C30 6.23083 30.8975 5.33333 32 5.33333C33.1025 5.33333 34 6.23083 34 7.33333C34 8.43583 33.1025 9.33333 32 9.33333ZM32 1.33333C35.6761 1.33333 38.6667 4.32392 38.6667 8C38.6667 9.66667 38.0472 11.1894 37.0319 12.3594C36.5648 11.1293 35.5908 10.1475 34.3773 9.66275C34.9675 9.06117 35.3333 8.24 35.3333 7.33333C35.3333 5.49542 33.8379 4 32 4C30.1621 4 28.6667 5.49542 28.6667 7.33333C28.6667 8.23992 29.0325 9.06117 29.6228 9.66275C28.4092 10.1475 27.4353 11.1293 26.9681 12.3594C25.9528 11.1894 25.3333 9.66667 25.3333 8C25.3333 4.32392 28.3239 1.33333 32 1.33333ZM3.33333 17.3333C3.33333 13.6573 6.32392 10.6667 10 10.6667C13.6761 10.6667 16.6667 13.6573 16.6667 17.3333C16.6667 19.0053 16.0433 20.5319 15.0228 21.7034C14.5573 20.4688 13.5814 19.4821 12.3646 18.9961C12.9541 18.3945 13.32 17.5733 13.32 16.6667C13.32 14.8288 11.8246 13.3333 9.98667 13.3333C8.14875 13.3333 6.65333 14.8288 6.65333 16.6667C6.65333 17.5733 7.01917 18.3945 7.60933 18.9961C6.39942 19.4786 5.42683 20.4567 4.958 21.6819C3.94858 20.5133 3.33333 18.9955 3.33333 17.3333ZM7.98667 16.6667C7.98667 15.5642 8.88417 14.6667 9.98667 14.6667C11.0892 14.6667 11.9867 15.5642 11.9867 16.6667C11.9867 17.7692 11.0892 18.6667 9.98667 18.6667C8.88417 18.6667 7.98667 17.7692 7.98667 16.6667ZM6.06283 22.7005C6.36325 21.1628 7.72067 20 9.32 20H10.6533C12.2588 20 13.6208 21.1713 13.9141 22.7181C12.8135 23.5206 11.4633 24 10 24C8.526 24 7.16733 23.5133 6.06283 22.7005ZM19.3962 37.3672C19.6966 35.8294 21.054 34.6667 22.6533 34.6667H23.9867C25.5921 34.6667 26.9542 35.8379 27.2474 37.3848C26.1468 38.1873 24.7966 38.6667 23.3333 38.6667C21.8593 38.6667 20.5007 38.18 19.3962 37.3672ZM23.32 33.3333C22.2175 33.3333 21.32 32.4358 21.32 31.3333C21.32 30.2308 22.2175 29.3333 23.32 29.3333C24.4225 29.3333 25.32 30.2308 25.32 31.3333C25.32 32.4358 24.4225 33.3333 23.32 33.3333ZM30 32C30 33.6719 29.3767 35.1986 28.3561 36.3701C27.8906 35.1354 26.9148 34.1488 25.6979 33.6628C26.2874 33.0612 26.6533 32.2399 26.6533 31.3333C26.6533 29.4954 25.1579 28 23.32 28C21.4821 28 19.9867 29.4954 19.9867 31.3333C19.9867 32.2399 20.3525 33.0612 20.9427 33.6628C19.7328 34.1453 18.7602 35.1233 18.2913 36.3486C17.2819 35.18 16.6667 33.6622 16.6667 32C16.6667 28.3239 19.6573 25.3333 23.3333 25.3333C27.0094 25.3333 30 28.3239 30 32ZM25.4128 24.2838C24.7487 24.1048 24.0534 24 23.3333 24C21.5039 24 19.8213 24.624 18.472 25.6615L15.848 22.7748C17.1788 21.3454 18 19.4358 18 17.3333C18 16.46 17.8548 15.6214 17.5947 14.834L24.9268 11.7265C25.7481 13.2793 27.0661 14.5254 28.6673 15.2633L25.4128 24.2838Z" fill="black"/>
</svg>
