<svg width="44" height="43" viewBox="0 0 44 43" fill="none" xmlns="http://www.w3.org/2000/svg">
<path opacity="0.915" fill-rule="evenodd" clip-rule="evenodd" d="M32.8631 0.00561678C34.5674 -0.00936542 36.2713 0.00562577 37.9751 0.0505814C38.0587 0.0842328 38.1348 0.129197 38.2033 0.185475C38.3519 1.85826 38.3823 3.53694 38.2946 5.22151C38.0055 5.73617 37.6404 5.79613 37.1992 5.40137C37.1688 4.26226 37.1383 3.12316 37.1079 1.98406C33.8063 5.2365 30.5049 8.4889 27.2033 11.7414C27.112 11.7564 27.0207 11.7713 26.9295 11.7863C26.635 11.7013 26.3611 11.5664 26.1079 11.3817C23.6752 9.61383 21.2105 7.89015 18.7137 6.21073C13.9554 9.85007 9.14763 13.4172 4.29047 16.9123C3.62695 16.7004 3.50522 16.3257 3.92532 15.7882C8.76806 12.1265 13.6366 8.49934 18.5311 4.90676C18.6833 4.8468 18.8354 4.8468 18.9876 4.90676C21.6276 6.73926 24.2598 8.58279 26.8838 10.4374C30.0028 7.36482 33.1217 4.29224 36.2407 1.21966C35.1452 1.18969 34.0498 1.1597 32.9544 1.12973C32.5092 0.790779 32.4788 0.416071 32.8631 0.00561678Z" fill="#1E292E"/>
<path opacity="0.923" fill-rule="evenodd" clip-rule="evenodd" d="M34.2323 9.0884C36.18 9.07338 38.1274 9.0884 40.0747 9.13336C40.1843 9.21457 40.2604 9.31942 40.3029 9.44811C40.3485 15.6232 40.3638 21.7984 40.3485 27.9735C40.5136 27.9727 40.6657 28.0177 40.805 28.1084C41.4378 28.6714 42.0007 29.2859 42.4938 29.952C42.5577 30.2602 42.5273 30.5601 42.4025 30.8512C42.0359 31.1973 41.686 31.557 41.3527 31.9304C41.4714 32.1936 41.5627 32.4634 41.6265 32.7398C42.2737 32.7052 42.9127 32.7502 43.5435 32.8747C43.715 33.0134 43.8519 33.1783 43.9543 33.3693C44.0152 34.2686 44.0152 35.1679 43.9543 36.0671C43.8519 36.2582 43.715 36.423 43.5435 36.5618C42.915 36.6899 42.276 36.7349 41.6265 36.6966C41.5627 36.973 41.4714 37.2428 41.3527 37.506C41.686 37.8794 42.0359 38.2391 42.4025 38.5852C42.585 38.9748 42.585 39.3646 42.4025 39.7542C41.8028 40.4052 41.1487 40.9898 40.4398 41.5079C40.0836 41.5742 39.749 41.5143 39.4357 41.328C39.1314 41.0283 38.8271 40.7284 38.5228 40.4287C38.2723 40.4304 38.0289 40.4904 37.7925 40.6086C37.7483 41.2614 37.6418 41.9059 37.473 42.542C37.3236 42.7498 37.1258 42.8847 36.8797 42.9467C36.0277 43.0067 35.1756 43.0067 34.3236 42.9467C33.9651 42.8035 33.7368 42.5486 33.639 42.1823C33.6479 41.632 33.5718 41.1073 33.4108 40.6086C33.1744 40.4904 32.931 40.4304 32.6805 40.4287C32.3457 40.7585 32.0111 41.0882 31.6763 41.4179C31.2363 41.6056 30.8103 41.5757 30.3983 41.328C29.9571 40.8934 29.5159 40.4587 29.0747 40.024C25.6963 43.2318 21.8774 43.8463 17.6182 41.8676C16.6892 41.3115 15.8524 40.637 15.1079 39.8442C14.6058 40.3388 14.1037 40.8334 13.6017 41.328C13.1897 41.5757 12.7636 41.6056 12.3236 41.4179C11.9889 41.0882 11.6542 40.7585 11.3195 40.4287C11.0379 40.4458 10.764 40.5208 10.4979 40.6535C10.4222 41.1605 10.3765 41.6701 10.361 42.1823C10.2716 42.4634 10.1042 42.6882 9.85892 42.8568C8.95518 43.002 8.04232 43.0321 7.12033 42.9467C6.80877 42.8499 6.58055 42.655 6.43568 42.3622C6.42022 41.7903 6.37458 41.2207 6.29875 40.6535C6.06691 40.5724 5.83869 40.4825 5.61411 40.3837C5.23791 40.6641 4.88798 40.9789 4.56432 41.328C4.10501 41.6186 3.64858 41.6186 3.19502 41.328C2.66252 40.8034 2.13001 40.2788 1.59751 39.7542C1.41494 39.3646 1.41494 38.9748 1.59751 38.5852C1.96408 38.2391 2.31401 37.8794 2.6473 37.506C2.52854 37.2428 2.43725 36.973 2.37345 36.6966C1.72391 36.7349 1.0849 36.6899 0.456434 36.5618C0.284971 36.423 0.148041 36.2582 0.0456454 36.0671C-0.0152151 35.1679 -0.0152151 34.2686 0.0456454 33.3693C0.148041 33.1783 0.284971 33.0134 0.456434 32.8747C1.08733 32.7502 1.72633 32.7052 2.37345 32.7398C2.43725 32.4634 2.52854 32.1936 2.6473 31.9304C2.31401 31.557 1.96408 31.1973 1.59751 30.8512C1.41494 30.4616 1.41494 30.0718 1.59751 29.6822C2.13001 29.1576 2.66252 28.633 3.19502 28.1084C3.65145 27.8087 4.10788 27.8087 4.56432 28.1084C4.8686 28.4081 5.17289 28.708 5.47718 29.0077C5.74982 29.002 6.00846 28.927 6.25311 28.7829C6.28354 26.5347 6.31397 24.2864 6.3444 22.0382C6.35927 21.8425 6.43535 21.6777 6.57261 21.5436C8.55051 21.4836 10.5283 21.4836 12.5062 21.5436C12.5519 21.5885 12.5975 21.6335 12.6431 21.6785C12.7772 23.7409 12.8229 25.8093 12.7801 27.8836C13.0711 27.8942 13.345 27.9691 13.6017 28.1084C13.8603 28.3632 14.119 28.618 14.3776 28.8728C14.6818 28.5131 14.9862 28.1534 15.2905 27.7937C15.3208 22.9975 15.3513 18.2012 15.3817 13.405C15.4242 13.2763 15.5003 13.1715 15.61 13.0902C17.5574 13.0303 19.5049 13.0303 21.4523 13.0902C21.5283 13.1652 21.6044 13.2402 21.6805 13.3151C21.7109 17.1521 21.7414 20.989 21.7718 24.826C22.7083 24.7577 23.6364 24.8476 24.556 25.0958C24.632 22.5783 24.6777 20.0603 24.6929 17.5417C24.769 17.4668 24.8451 17.3918 24.9212 17.3169C26.8686 17.2569 28.8161 17.2569 30.7635 17.3169C30.8395 17.3918 30.9156 17.4668 30.9917 17.5417C31.0373 20.9889 31.0526 24.4362 31.0373 27.8836C31.3043 27.88 31.5477 27.9549 31.7676 28.1084C32.0719 28.4081 32.3762 28.708 32.6805 29.0077C32.9714 29.0174 33.2453 28.9425 33.5021 28.7829C33.5778 28.2759 33.6235 27.7663 33.639 27.2541C33.6902 27.054 33.7815 26.8741 33.9128 26.7145C33.9432 20.9291 33.9737 15.1436 34.0041 9.35818C34.0679 9.25108 34.1439 9.16115 34.2323 9.0884ZM35.1452 10.2575C36.4841 10.2575 37.8229 10.2575 39.1618 10.2575C39.1771 16.3128 39.1618 22.368 39.1162 28.4232C38.8987 28.6677 38.6553 28.8776 38.3859 29.0527C38.1613 28.9539 37.9331 28.864 37.7012 28.7829C37.9962 26.7954 37.1442 26.016 35.1452 26.4447C35.1452 21.049 35.1452 15.6532 35.1452 10.2575ZM16.5228 14.2144C17.8617 14.2144 19.2005 14.2144 20.5394 14.2144C20.5394 17.7816 20.5394 21.3487 20.5394 24.9159C19.0744 25.1807 17.7508 25.7502 16.5685 26.6246C16.5228 22.4879 16.5076 18.3512 16.5228 14.2144ZM25.834 18.441C27.1729 18.441 28.5117 18.441 29.8506 18.441C29.8659 21.8584 29.8506 25.2757 29.805 28.693C28.7868 27.3146 27.4935 26.2655 25.9253 25.5454C25.834 23.178 25.8036 20.8099 25.834 18.441ZM7.48548 22.5778C8.85477 22.5778 10.2241 22.5778 11.5934 22.5778C11.6086 24.6463 11.5934 26.7147 11.5477 28.7829C11.4717 28.8578 11.3955 28.9328 11.3195 29.0077C11.0286 29.0174 10.7547 28.9425 10.4979 28.7829C10.4222 28.2759 10.3765 27.7663 10.361 27.2541C10.2716 26.9731 10.1042 26.7482 9.85892 26.5796C9.07769 26.45 8.2866 26.4051 7.48548 26.4447C7.48548 25.1558 7.48548 23.8667 7.48548 22.5778ZM21.7261 25.9051C25.393 25.9677 28.0252 27.6164 29.6224 30.8512C30.8433 34.2682 30.1586 37.2509 27.5685 39.7992C25.0276 41.8801 22.1977 42.3598 19.0788 41.2381C15.9405 39.7778 14.2669 37.3347 14.0581 33.9088C14.4952 29.252 17.0512 26.5841 21.7261 25.9051ZM7.48548 27.6138C8.06359 27.6138 8.6418 27.6138 9.21991 27.6138C9.20476 28.1542 9.22001 28.6938 9.26556 29.2325C9.36798 29.4235 9.50491 29.5884 9.67634 29.7271C10.1642 29.9601 10.6663 30.1548 11.1826 30.3117C11.382 30.2738 11.5798 30.2289 11.7759 30.1768C12.1272 29.8156 12.4923 29.4709 12.8714 29.1426C13.2061 29.4124 13.5104 29.7121 13.7842 30.0419C12.4729 33.0537 12.6555 35.9764 14.3319 38.81C13.8935 39.3469 13.4066 39.8416 12.8714 40.2938C12.5228 39.9954 12.1881 39.6807 11.8672 39.3496C11.6641 39.2478 11.4511 39.1729 11.2282 39.1247C10.6921 39.2688 10.1748 39.4637 9.67634 39.7093C9.46547 39.8565 9.32854 40.0514 9.26556 40.2938C9.22001 40.8025 9.20476 41.3122 9.21991 41.8226C8.6418 41.8226 8.06359 41.8226 7.48548 41.8226C7.50065 41.2822 7.48543 40.7426 7.43983 40.2039C7.36808 39.9266 7.20073 39.7318 6.93776 39.6193C6.48088 39.4541 6.02445 39.2893 5.56846 39.1247C5.31545 39.172 5.07203 39.2469 4.83817 39.3496C4.53389 39.6493 4.2296 39.9491 3.92531 40.2488C3.86445 40.3088 3.8036 40.3088 3.74274 40.2488C3.37759 39.8891 3.01245 39.5294 2.6473 39.1697C3.06122 38.7921 3.44159 38.3874 3.78838 37.9557C3.8525 37.2098 3.66993 36.5203 3.24066 35.8873C3.06405 35.7432 2.86627 35.6383 2.6473 35.5725C2.13091 35.5277 1.61361 35.5126 1.09544 35.5276C1.09544 34.988 1.09544 34.4484 1.09544 33.9088C1.61361 33.9238 2.13091 33.9088 2.6473 33.8639C2.80673 33.8215 2.95886 33.7615 3.10374 33.684C3.70254 32.9742 3.90032 32.1798 3.6971 31.3009C3.34717 30.9562 2.99723 30.6114 2.6473 30.2667C3.02903 29.8756 3.4246 29.501 3.83403 29.1426C4.18257 29.441 4.51728 29.7557 4.83817 30.0869C5.05414 30.1977 5.28235 30.2726 5.52282 30.3117C6.06818 30.1526 6.60069 29.9577 7.12033 29.7271C7.26102 29.5851 7.36752 29.4202 7.43983 29.2325C7.48543 28.6938 7.50065 28.1542 7.48548 27.6138ZM34.7801 27.6138C35.3582 27.6138 35.9364 27.6138 36.5145 27.6138C36.4994 28.1542 36.5146 28.6938 36.5602 29.2325C36.6319 29.5098 36.7992 29.7046 37.0622 29.8171C37.5281 30.0001 37.9998 30.1649 38.4772 30.3117C38.7176 30.2726 38.9458 30.1977 39.1618 30.0869C39.4661 29.7871 39.7704 29.4873 40.0747 29.1876C40.1356 29.1276 40.1964 29.1276 40.2572 29.1876C40.6224 29.5473 40.9875 29.907 41.3527 30.2667C40.9388 30.6443 40.5584 31.049 40.2116 31.4808C40.1475 32.2266 40.3301 32.9161 40.7593 33.5491C40.9236 33.7125 41.1214 33.8175 41.3527 33.8639C41.8691 33.9088 42.3864 33.9238 42.9045 33.9088C42.9045 34.4484 42.9045 34.988 42.9045 35.5276C42.2877 35.4937 41.6791 35.5386 41.0788 35.6625C40.9803 35.7484 40.8739 35.8233 40.7593 35.8873C40.559 36.2694 40.3765 36.6591 40.2116 37.0564C40.1336 37.4273 40.1641 37.787 40.3029 38.1355C40.6528 38.4802 41.0028 38.825 41.3527 39.1697C40.9709 39.5608 40.5754 39.9354 40.166 40.2938C39.8174 39.9954 39.4827 39.6807 39.1618 39.3496C38.8775 39.1759 38.5733 39.1159 38.2489 39.1697C37.7268 39.3607 37.2247 39.5855 36.7427 39.8442C36.6818 39.964 36.621 40.084 36.5602 40.2039C36.5146 40.7426 36.4994 41.2822 36.5145 41.8226C35.9364 41.8226 35.3582 41.8226 34.7801 41.8226C34.7952 41.3122 34.78 40.8025 34.7344 40.2938C34.6714 40.0514 34.5345 39.8565 34.3236 39.7093C33.8252 39.4637 33.3079 39.2688 32.7718 39.1247C32.5488 39.1729 32.3359 39.2478 32.1328 39.3496C31.8119 39.6807 31.4771 39.9954 31.1286 40.2938C30.6722 39.9042 30.2462 39.4844 29.8506 39.0348C31.219 36.9395 31.6907 34.6614 31.2655 32.2002C31.0555 31.3409 30.812 30.5016 30.5353 29.6822C30.7193 29.4858 30.9171 29.3059 31.1286 29.1426C31.5076 29.4709 31.8728 29.8156 32.2241 30.1768C32.4202 30.2289 32.618 30.2738 32.8174 30.3117C33.5 30.1481 34.1086 29.8484 34.6431 29.4124C34.7688 28.821 34.8145 28.2215 34.7801 27.6138ZM25.2863 30.9412C26.0599 31.144 26.2577 31.5936 25.8797 32.2901C24.3709 33.8065 22.8342 35.2903 21.2697 36.7416C21.0138 36.8095 20.7704 36.7796 20.5394 36.6517C19.7939 35.9172 19.0484 35.1829 18.3029 34.4484C18.1872 33.5428 18.5675 33.2281 19.444 33.5042C19.8091 33.8639 20.1743 34.2236 20.5394 34.5833C20.7704 34.7112 21.0138 34.7411 21.2697 34.6732C22.4564 33.5042 23.6431 32.3351 24.8299 31.166C24.9956 31.0979 25.1476 31.023 25.2863 30.9412ZM8.21576 32.1103C10.3362 32.3847 11.2034 33.5538 10.8174 35.6175C10.0839 37.0356 8.94286 37.5302 7.39419 37.1013C5.69076 36.1157 5.34083 34.7817 6.3444 33.0995C6.85445 32.5413 7.47824 32.2115 8.21576 32.1103ZM35.5104 32.1103C37.1407 32.2476 38.0536 33.1169 38.2489 34.7182C38.0727 36.2558 37.2055 37.1251 35.6473 37.3262C33.5984 36.9873 32.7768 35.8182 33.1826 33.8189C33.6404 32.8115 34.4163 32.242 35.5104 32.1103Z" fill="#1E292E"/>
<path opacity="0.911" fill-rule="evenodd" clip-rule="evenodd" d="M25.1949 29.7722C26.4709 29.8152 27.1707 30.4597 27.2945 31.7057C27.2803 32.1065 27.1739 32.4812 26.975 32.8298C25.3471 34.4335 23.7191 36.0373 22.0912 37.641C21.3305 38.0607 20.5697 38.0607 19.8091 37.641C19.0027 36.8467 18.1963 36.0522 17.39 35.2579C16.9444 34.4297 16.9748 33.6204 17.4813 32.8298C18.3498 32.0828 19.278 32.0079 20.2655 32.605C20.4937 32.8298 20.7219 33.0546 20.9501 33.2795C21.9695 32.2752 22.9888 31.2711 24.0082 30.2668C24.371 29.9975 24.7665 29.8326 25.1949 29.7722ZM25.2862 30.9413C25.1476 31.0231 24.9955 31.098 24.8298 31.1661C23.6431 32.3352 22.4564 33.5043 21.2696 34.6734C21.0138 34.7413 20.7703 34.7113 20.5393 34.5834C20.1742 34.2237 19.8091 33.864 19.4439 33.5043C18.5675 33.2282 18.1872 33.5429 18.3028 34.4485C19.0484 35.183 19.7938 35.9173 20.5393 36.6518C20.7703 36.7797 21.0138 36.8096 21.2696 36.7417C22.8341 35.2904 24.3708 33.8066 25.8796 32.2902C26.2576 31.5937 26.0599 31.1441 25.2862 30.9413Z" fill="#1E292E"/>
<path opacity="0.909" fill-rule="evenodd" clip-rule="evenodd" d="M8.21554 30.9412C11.1716 31.28 12.4343 32.8987 12.0039 35.7973C11.4081 37.5009 10.191 38.4002 8.35247 38.4952C6.03264 38.2633 4.76984 37.0043 4.56409 34.7182C4.75964 32.4874 5.9768 31.2284 8.21554 30.9412ZM8.21554 32.1102C7.47801 32.2115 6.85422 32.5413 6.34417 33.0995C5.3406 34.7817 5.69053 36.1157 7.39396 37.1013C8.94263 37.5302 10.0837 37.0356 10.8172 35.6175C11.2032 33.5538 10.3359 32.3847 8.21554 32.1102Z" fill="#1E292E"/>
<path opacity="0.908" fill-rule="evenodd" clip-rule="evenodd" d="M35.5103 30.9412C37.9053 31.1123 39.2137 32.3713 39.4356 34.7182C39.2299 37.0043 37.9671 38.2633 35.6473 38.4952C33.3226 38.2585 32.0597 36.9995 31.8589 34.7182C32.0521 32.4896 33.2693 31.2306 35.5103 30.9412ZM35.5103 32.1102C34.4163 32.242 33.6403 32.8115 33.1825 33.8189C32.7768 35.8182 33.5983 36.9873 35.6473 37.3261C37.2054 37.1251 38.0727 36.2558 38.2489 34.7182C38.0536 33.1169 37.1407 32.2476 35.5103 32.1102Z" fill="#1E292E"/>
</svg>
