<svg width="27" height="31" viewBox="0 0 27 31" fill="none" xmlns="http://www.w3.org/2000/svg">
<path d="M25.3539 10.5108C25.3443 10.45 25.3241 10.392 25.2943 10.34C25.2646 10.288 25.226 10.243 25.1806 10.2076C25.1352 10.1722 25.084 10.1472 25.03 10.1338C24.9759 10.1205 24.92 10.1191 24.8654 10.1299L22.7913 10.5366C22.7367 10.5472 22.6845 10.5697 22.6377 10.6029C22.591 10.636 22.5505 10.6791 22.5188 10.7296C22.487 10.7801 22.4645 10.8372 22.4525 10.8974C22.4405 10.9577 22.4394 11.0199 22.4491 11.0807L22.5393 11.6487L21.3593 11.8781L20.6492 11.7571V4.80733C20.6492 4.30971 20.4717 3.83247 20.1555 3.4806C19.8394 3.12872 19.4107 2.93105 18.9636 2.93105H16.0137V1.9929C16.0137 1.61969 15.8805 1.26176 15.6435 0.997856C15.4064 0.733953 15.0848 0.585693 14.7495 0.585693L12.2211 0.585693C11.8858 0.585693 11.5642 0.733953 11.3271 0.997856C11.09 1.26176 10.9568 1.61969 10.9568 1.9929V2.93105H8.00696C7.5599 2.93105 7.13115 3.12872 6.81504 3.4806C6.49892 3.83247 6.32132 4.30971 6.32132 4.80733V11.7585L5.6083 11.88L4.43172 11.6492L4.52148 11.0807C4.53118 11.0199 4.53002 10.9577 4.51807 10.8974C4.50611 10.8372 4.4836 10.7801 4.45181 10.7296C4.42002 10.6791 4.37959 10.636 4.33283 10.6029C4.28607 10.5697 4.2339 10.5472 4.1793 10.5366L2.10723 10.1299C2.05266 10.1191 1.99671 10.1204 1.94258 10.1337C1.88846 10.147 1.83723 10.172 1.79182 10.2074C1.74641 10.2428 1.70772 10.2878 1.67796 10.3399C1.6482 10.3919 1.62796 10.45 1.61839 10.5108L0.00650319 20.6722C-0.00319683 20.733 -0.00203568 20.7953 0.00992014 20.8555C0.021876 20.9157 0.0443916 20.9728 0.0761774 21.0233C0.107963 21.0739 0.148395 21.1169 0.195156 21.15C0.241918 21.1832 0.294091 21.2057 0.348688 21.2164L2.42329 21.623C2.47783 21.6338 2.53373 21.6324 2.58781 21.6191C2.64188 21.6057 2.69307 21.5807 2.73843 21.5453C2.78379 21.5099 2.82244 21.4649 2.85217 21.4129C2.8819 21.3609 2.90213 21.3029 2.9117 21.2421L2.95005 20.9903L3.29813 21.0587C3.61896 21.8453 4.08571 22.5474 4.66771 23.1189C4.64541 23.5424 4.75374 23.9618 4.97476 24.3074C5.19578 24.6531 5.51623 24.9043 5.88306 25.0196C5.68591 25.384 5.6066 25.8126 5.65829 26.2341C5.70997 26.6556 5.88955 27.0448 6.16723 27.3372C6.44491 27.6295 6.80402 27.8074 7.185 27.8414C7.56599 27.8753 7.94596 27.7633 8.26191 27.5239C8.30382 27.8354 8.41625 28.1299 8.58863 28.3797C8.76101 28.6294 8.98767 28.8262 9.24725 28.9515C9.50683 29.0769 9.7908 29.1266 10.0724 29.096C10.354 29.0655 10.624 28.9556 10.857 28.7768C10.8964 29.0641 10.9959 29.3371 11.1474 29.5737C11.299 29.8104 11.4984 30.0041 11.7295 30.1393C11.9606 30.2744 12.217 30.3473 12.4781 30.352C12.7391 30.3567 12.9975 30.293 13.2324 30.1662V30.169L13.401 30.2938C13.5856 30.4298 13.7925 30.5241 14.0098 30.5711C14.2271 30.6181 14.4507 30.6171 14.6676 30.5679C14.8846 30.5188 15.0907 30.4226 15.2742 30.2848C15.4578 30.1469 15.6151 29.9702 15.7373 29.7647C15.9218 29.452 16.0162 29.0842 16.0078 28.7102C16.1445 28.7517 16.2855 28.7734 16.4271 28.775C16.6498 28.7757 16.8704 28.7273 17.0762 28.6324C17.2819 28.5376 17.4687 28.3982 17.6257 28.2224C17.7826 28.0466 17.9067 27.8379 17.9907 27.6083C18.0747 27.3788 18.1169 27.1329 18.1149 26.8851C18.249 26.9243 18.3871 26.9448 18.5258 26.946C18.7482 26.9461 18.9684 26.8971 19.1737 26.8019C19.379 26.7068 19.5653 26.5674 19.722 26.3917C19.8787 26.216 20.0026 26.0076 20.0866 25.7784C20.1706 25.5492 20.213 25.3037 20.2114 25.0562C20.4683 25.1307 20.7374 25.136 20.9966 25.0717C21.2557 25.0074 21.4973 24.8753 21.7014 24.6864C21.9056 24.4974 22.0663 24.2571 22.1704 23.9853C22.2745 23.7134 22.3189 23.4179 22.2999 23.1231C22.8825 22.5507 23.3493 21.8473 23.6695 21.0592L24.0205 20.9926L24.0601 21.2421C24.0697 21.3029 24.0899 21.361 24.1197 21.413C24.1495 21.4651 24.1882 21.5101 24.2336 21.5455C24.279 21.5809 24.3302 21.6059 24.3843 21.6192C24.4384 21.6325 24.4944 21.6338 24.549 21.623L26.6231 21.2164C26.6777 21.2057 26.7299 21.1832 26.7767 21.15C26.8234 21.1169 26.8639 21.0739 26.8957 21.0233C26.9274 20.9728 26.95 20.9157 26.9619 20.8555C26.9739 20.7953 26.975 20.733 26.9653 20.6722L25.3539 10.5108ZM11.7996 1.9929C11.7996 1.8685 11.844 1.74919 11.9231 1.66122C12.0021 1.57325 12.1093 1.52383 12.2211 1.52383H14.7495C14.8613 1.52383 14.9685 1.57325 15.0475 1.66122C15.1265 1.74919 15.1709 1.8685 15.1709 1.9929V2.93105H11.7996V1.9929ZM7.16414 4.80733C7.16414 4.55852 7.25294 4.3199 7.411 4.14396C7.56906 3.96803 7.78343 3.86919 8.00696 3.86919H18.9636C19.1871 3.86919 19.4015 3.96803 19.5596 4.14396C19.7176 4.3199 19.8064 4.55852 19.8064 4.80733V6.21454C19.8064 6.58776 19.6732 6.94568 19.4361 7.20959C19.1991 7.47349 18.8775 7.62175 18.5422 7.62175V7.15268C18.5422 7.02828 18.4978 6.90897 18.4188 6.821C18.3397 6.73303 18.2326 6.68361 18.1208 6.68361H16.4352C16.3234 6.68361 16.2162 6.73303 16.1372 6.821C16.0581 6.90897 16.0137 7.02828 16.0137 7.15268V7.62175H10.9568V7.15268C10.9568 7.02828 10.9124 6.90897 10.8334 6.821C10.7544 6.73303 10.6472 6.68361 10.5354 6.68361H8.84978C8.73802 6.68361 8.63083 6.73303 8.5518 6.821C8.47277 6.90897 8.42837 7.02828 8.42837 7.15268V7.62175C8.09308 7.62175 7.77151 7.47349 7.53443 7.20959C7.29734 6.94568 7.16414 6.58776 7.16414 6.21454V4.80733ZM17.6994 7.62175V8.55989H16.8566V7.62175H17.6994ZM10.114 7.62175V8.55989H9.27119V7.62175H10.114ZM7.16414 8.07863C7.52672 8.38906 7.97094 8.55817 8.42837 8.55989V9.02896C8.42837 9.15337 8.47277 9.27268 8.5518 9.36065C8.63083 9.44861 8.73802 9.49803 8.84978 9.49803H10.5354C10.6472 9.49803 10.7544 9.44861 10.8334 9.36065C10.9124 9.27268 10.9568 9.15337 10.9568 9.02896V8.55989H16.0137V9.02896C16.0137 9.15337 16.0581 9.27268 16.1372 9.36065C16.2162 9.44861 16.3234 9.49803 16.4352 9.49803H18.1208C18.2326 9.49803 18.3397 9.44861 18.4188 9.36065C18.4978 9.27268 18.5422 9.15337 18.5422 9.02896V8.55989C18.9996 8.55817 19.4438 8.38906 19.8064 8.07863V11.6135L16.6037 11.0685C15.9073 10.9517 15.1954 11.0522 14.5472 11.3588L13.4853 11.8626L12.4263 11.3602C11.7771 11.0523 11.0636 10.9521 10.366 11.0708L7.16414 11.6154V8.07863ZM2.15485 20.6183L0.910005 20.3734L2.37314 11.1327L3.6184 11.3771L2.15485 20.6183ZM5.70185 23.8188C5.55823 23.6282 5.48847 23.382 5.50791 23.1342C5.52735 22.8864 5.6344 22.6573 5.80552 22.4974L7.41994 20.9903C7.50472 20.911 7.60269 20.8512 7.70825 20.8141C7.81381 20.777 7.9249 20.7635 8.03517 20.7742C8.14545 20.7849 8.25274 20.8197 8.35094 20.8766C8.44913 20.9334 8.5363 21.0113 8.60747 21.1056C8.67864 21.2 8.73241 21.3091 8.76571 21.4266C8.79902 21.5441 8.81121 21.6677 8.80158 21.7905C8.79196 21.9132 8.7607 22.0326 8.70961 22.1419C8.65852 22.2512 8.58858 22.3483 8.5038 22.4275L6.88938 23.9356C6.80453 24.0147 6.7065 24.0745 6.60089 24.1114C6.49528 24.1484 6.38416 24.1618 6.27388 24.151C6.1636 24.1401 6.05632 24.1052 5.95817 24.0482C5.86002 23.9912 5.77292 23.9132 5.70185 23.8188ZM7.86874 26.6937C7.78393 26.7729 7.68593 26.8328 7.58035 26.8698C7.47476 26.9069 7.36365 26.9204 7.25335 26.9097C7.14306 26.8989 7.03575 26.8641 6.93754 26.8072C6.83934 26.7503 6.75216 26.6725 6.681 26.5781C6.60983 26.4837 6.55606 26.3746 6.52277 26.2571C6.48947 26.1395 6.4773 26.0158 6.48695 25.8931C6.49659 25.7703 6.52787 25.6509 6.57899 25.5415C6.6301 25.4322 6.70007 25.3352 6.78487 25.256L8.72336 23.4468C8.8955 23.2968 9.11325 23.2271 9.33066 23.2525C9.54807 23.2779 9.74812 23.3962 9.88859 23.5827C10.0291 23.7691 10.099 24.009 10.0836 24.2517C10.0681 24.4944 9.9686 24.721 9.80596 24.8835L7.86874 26.6937ZM10.4625 27.9452C10.3777 28.0244 10.2797 28.0842 10.1741 28.1212C10.0686 28.1582 9.95746 28.1718 9.84719 28.161C9.73692 28.1502 9.62963 28.1154 9.53145 28.0585C9.43327 28.0016 9.34612 27.9237 9.27498 27.8293C9.20384 27.7349 9.1501 27.6258 9.11683 27.5083C9.08356 27.3908 9.07142 27.2671 9.08108 27.1444C9.09075 27.0216 9.12204 26.9022 9.17317 26.7929C9.2243 26.6837 9.29426 26.5867 9.37907 26.5075L10.6707 25.3015C10.8422 25.1447 11.0624 25.0696 11.2834 25.0925C11.5044 25.1154 11.7084 25.2343 11.8511 25.4236C11.9938 25.6128 12.0636 25.8571 12.0454 26.1033C12.0273 26.3496 11.9226 26.5779 11.7541 26.7387L10.4625 27.9452ZM13.0559 29.199C12.8844 29.3567 12.6638 29.4325 12.4423 29.4099C12.2208 29.3873 12.0162 29.2682 11.8733 29.0785C11.7304 28.8887 11.6606 28.6438 11.6793 28.397C11.6979 28.1503 11.8035 27.9218 11.9728 27.7613L13.264 26.5553C13.3488 26.4761 13.4468 26.4162 13.5524 26.3791C13.6579 26.3421 13.769 26.3285 13.8793 26.3392C13.9896 26.3499 14.0969 26.3847 14.1951 26.4416C14.2932 26.4985 14.3804 26.5763 14.4516 26.6707C14.5227 26.7651 14.5765 26.8742 14.6098 26.9917C14.643 27.1092 14.6552 27.2329 14.6455 27.3556C14.6359 27.4784 14.6046 27.5978 14.5534 27.7071C14.5023 27.8164 14.4323 27.9134 14.3475 27.9925L13.0559 29.199ZM15.0335 29.2487C14.9219 29.4382 14.7518 29.5758 14.5553 29.6354C14.3589 29.695 14.1496 29.6726 13.967 29.5724L14.8894 28.7112C14.9767 28.63 15.0563 28.5391 15.1271 28.44C15.167 28.5735 15.1793 28.7153 15.1631 28.8549C15.1469 28.9944 15.1026 29.1281 15.0335 29.2459V29.2487ZM21.329 23.7578C21.2679 23.8605 21.1892 23.9489 21.0974 24.0178C21.0057 24.0867 20.9026 24.1348 20.7941 24.1594C20.6857 24.184 20.5739 24.1845 20.4652 24.161C20.3566 24.1375 20.2531 24.0904 20.1608 24.0223L16.6459 21.4345C16.5998 21.3973 16.5474 21.3709 16.4919 21.3569C16.4364 21.3428 16.379 21.3415 16.323 21.3528C16.267 21.3642 16.2137 21.3881 16.1662 21.423C16.1187 21.4579 16.0781 21.5032 16.0468 21.556C16.0154 21.6089 15.9941 21.6683 15.9839 21.7306C15.9738 21.793 15.9751 21.8569 15.9877 21.9187C16.0004 21.9804 16.0242 22.0387 16.0576 22.0899C16.091 22.1412 16.1335 22.1844 16.1823 22.2169L18.9948 24.2888C19.1811 24.4263 19.3107 24.6406 19.3551 24.8845C19.3995 25.1284 19.355 25.3819 19.2314 25.5893C19.1079 25.7966 18.9153 25.9409 18.6962 25.9903C18.4771 26.0397 18.2494 25.9902 18.0631 25.8526L15.251 23.7812C15.2041 23.7463 15.1514 23.7224 15.0959 23.7109C15.0002 23.6908 14.9012 23.7082 14.8158 23.7602C14.7303 23.8122 14.6637 23.8955 14.6272 23.996C14.5907 24.0965 14.5866 24.208 14.6156 24.3114C14.6445 24.4149 14.7048 24.504 14.7862 24.5636L16.8932 26.1177C17.0784 26.2557 17.2069 26.4697 17.2507 26.7129C17.2945 26.9562 17.2499 27.2088 17.1268 27.4155C17.0037 27.6223 16.812 27.7664 16.5937 27.8162C16.3754 27.8661 16.1482 27.8176 15.9619 27.6816L15.4815 27.3279C15.4931 26.9837 15.4186 26.6427 15.2664 26.3429C15.1141 26.043 14.8901 25.7962 14.6192 25.6297C14.3483 25.4633 14.0412 25.3839 13.7322 25.4003C13.4231 25.4167 13.1242 25.5283 12.8688 25.7227C12.8361 25.4788 12.7599 25.2447 12.6447 25.0341C12.5295 24.8235 12.3775 24.6407 12.1979 24.4964C12.0182 24.3522 11.8145 24.2494 11.5986 24.1942C11.3827 24.1389 11.159 24.1323 10.9408 24.1748C10.9482 23.7308 10.811 23.2988 10.5545 22.9587C10.298 22.6185 9.93964 22.3932 9.54553 22.3243C9.66886 21.937 9.67419 21.5153 9.56071 21.1243C9.44723 20.7333 9.22125 20.3947 8.91767 20.161C8.61409 19.9272 8.2498 19.8112 7.88107 19.8308C7.51235 19.8505 7.15969 20.0047 6.87758 20.2698L5.26316 21.7778C5.1503 21.886 5.05107 22.0107 4.96818 22.1484C4.54643 21.6644 4.21399 21.0931 3.98967 20.4668C3.9631 20.3923 3.91983 20.3266 3.86398 20.276C3.80814 20.2255 3.74158 20.1916 3.67066 20.1778L3.09712 20.0653L4.28423 12.5719L5.52907 12.8162C5.57439 12.8249 5.62071 12.8249 5.66603 12.8162L10.4933 11.9982C11.0355 11.9056 11.5901 11.9836 12.0946 12.2233L12.4082 12.372L10.7255 13.1694C10.3474 13.3494 10.0251 13.6488 9.79837 14.0307L8.21261 16.6917C8.02914 17.0042 7.96402 17.3848 8.03143 17.7505C8.09883 18.1163 8.2933 18.4375 8.57249 18.6444C9.03875 18.9864 9.60779 19.1087 10.1549 18.9844C10.702 18.8602 11.1825 18.4996 11.4912 17.9816L12.2147 16.7686L13.7533 16.4182C13.9191 16.9873 14.2008 17.5061 14.5764 17.9341C14.952 18.362 15.4113 18.6877 15.9185 18.8855C16.0983 18.9569 16.2827 19.0129 16.4701 19.053L21.0909 22.4585C21.2772 22.5957 21.4069 22.8096 21.4515 23.0533C21.4962 23.2969 21.4521 23.5503 21.329 23.7578ZM23.2991 20.1788C23.2279 20.1926 23.161 20.2265 23.105 20.2774C23.049 20.3282 23.0057 20.3943 22.9792 20.4691C22.7548 21.0983 22.4211 21.6722 21.9973 22.1578C21.8787 21.9677 21.729 21.8042 21.5561 21.6756L17.9741 19.038C18.4396 18.9344 18.883 18.7329 19.2805 18.4441L19.9425 17.961C20.036 17.8926 20.1012 17.7856 20.1238 17.6637C20.1464 17.5418 20.1245 17.4149 20.0631 17.3109C20.0016 17.2069 19.9055 17.1343 19.796 17.1091C19.6865 17.084 19.5724 17.1083 19.479 17.1767L18.8191 17.6599C18.4374 17.9389 18.0026 18.1152 17.5491 18.1747C17.0956 18.2342 16.6358 18.1753 16.2063 18.0028C15.8111 17.8495 15.454 17.5943 15.1642 17.2581C14.8744 16.9219 14.6601 16.5142 14.5388 16.0683C14.5125 15.972 14.4903 15.8743 14.4722 15.7756C14.4494 15.6542 14.3843 15.5478 14.2912 15.4797C14.1981 15.4116 14.0846 15.3872 13.9754 15.4121L11.8763 15.8905C11.7671 15.9154 11.6712 15.9874 11.6096 16.0908L10.7925 17.4647C10.6072 17.7753 10.319 17.9915 9.99084 18.0661C9.66272 18.1407 9.32139 18.0677 9.04152 17.863C8.94813 17.7937 8.88302 17.6863 8.86031 17.564C8.83759 17.4417 8.85909 17.3143 8.92016 17.2096L10.5051 14.549C10.641 14.3205 10.8339 14.1412 11.0601 14.033L14.8785 12.2224C15.3833 11.9839 15.9376 11.9058 16.4798 11.9968L21.305 12.8176C21.3501 12.8254 21.396 12.8254 21.4411 12.8176L22.6884 12.5747L23.873 20.0681L23.2991 20.1788ZM24.8161 20.6173L23.3526 11.3767L24.5979 11.1323L26.061 20.373L24.8161 20.6173Z" fill="#273339"/>
</svg>
