<svg width="27" height="31" viewBox="0 0 27 31" fill="none" xmlns="http://www.w3.org/2000/svg">
<path d="M4.87259 26.3874C4.85065 26.1396 5.01905 25.9196 5.24736 25.8976C5.47447 25.8757 5.67609 26.0587 5.69625 26.3065C5.74665 26.8972 6.69484 27.2103 7.23742 26.7264C7.37856 26.6015 7.46632 26.4346 7.46632 26.2567C7.46632 25.0482 4.86428 26.1338 4.86428 23.9367C4.86428 23.137 5.45787 22.5392 6.15878 22.3723V22.0036C6.15878 21.7506 6.34201 21.5507 6.58751 21.5507V21.5526C6.82293 21.5546 7.00616 21.7616 7.00082 22.0126L6.9943 22.3704C7.70055 22.5334 8.2971 23.1332 8.2971 23.9367C8.2971 24.1864 8.1103 24.3896 7.882 24.3896C7.6537 24.3896 7.46691 24.1858 7.46691 23.9367C7.46691 23.313 6.48374 22.9662 5.92395 23.4657C5.78282 23.5925 5.69506 23.7594 5.69506 23.9367C5.69506 25.1452 8.2971 24.0596 8.2971 26.2567C8.2971 27.0583 7.70055 27.658 6.99608 27.823L6.98956 28.1899C6.98956 28.4389 6.80276 28.6427 6.57446 28.6427C6.34616 28.6427 6.15937 28.4389 6.15937 28.1899V27.8211C5.50293 27.6658 4.93663 27.1321 4.87259 26.3874ZM6.58039 19.5839C9.371 19.5839 11.6332 22.0521 11.6332 25.0967C11.6332 28.1413 9.371 30.6095 6.58039 30.6095C3.78979 30.6095 1.52754 28.1407 1.52754 25.0967C1.52754 22.0527 3.79038 19.5839 6.58039 19.5839ZM9.56728 21.8392C7.91818 20.04 5.2438 20.04 3.59529 21.8392C1.94678 23.6384 1.94619 26.5563 3.59529 28.3548C5.24439 30.154 7.91877 30.154 9.56728 28.3548C11.2146 26.5563 11.2164 23.6384 9.56728 21.8392ZM4.5838 12.9667C4.62218 12.9245 4.66785 12.8909 4.71818 12.868C4.76851 12.8451 4.8225 12.8333 4.87703 12.8333C4.93157 12.8333 4.98556 12.8451 5.03589 12.868C5.08622 12.8909 5.13189 12.9245 5.17027 12.9667C5.33334 13.1427 5.33334 13.4287 5.17027 13.6066L4.16989 14.698L5.09614 15.7066C5.25744 15.8845 5.25744 16.1705 5.09614 16.3465C5.0576 16.3888 5.01177 16.4223 4.96129 16.4452C4.91082 16.4681 4.85669 16.4799 4.80202 16.4799C4.74735 16.4799 4.69323 16.4681 4.64275 16.4452C4.59227 16.4223 4.54645 16.3888 4.5079 16.3465L3.28931 15.0189C3.21181 14.9335 3.16834 14.8182 3.16834 14.698C3.16834 14.5778 3.21181 14.4625 3.28931 14.3771L4.5838 12.9667ZM0.858647 14.2451H1.69891C1.92781 14.2451 2.114 14.4489 2.114 14.698C2.114 14.9471 1.92721 15.1509 1.69891 15.1509H0.858647C1.04188 16.5703 2.07072 17.6928 3.37173 17.8927V16.9779C3.37173 16.7269 3.55852 16.525 3.78682 16.525C4.0169 16.525 4.20192 16.7269 4.20192 16.9779V17.8927C5.50293 17.6928 6.53355 16.5703 6.715 15.1509H5.87652C5.64762 15.1509 5.46142 14.9471 5.46142 14.698C5.46142 14.4483 5.64821 14.2451 5.87652 14.2451H6.715C6.53355 12.8257 5.50293 11.7013 4.20192 11.5033V12.4187C4.20192 12.6698 4.0169 12.8716 3.78682 12.8716C3.55793 12.8716 3.37173 12.6698 3.37173 12.4187V11.5033C2.07072 11.7013 1.04188 12.8257 0.858647 14.2451ZM3.78682 10.5665C5.87948 10.5665 7.57543 12.4168 7.57543 14.698C7.57543 16.9792 5.87948 18.8295 3.78682 18.8295C1.69595 18.8295 0 16.9792 0 14.698C0 12.4168 1.69595 10.5665 3.78682 10.5665ZM8.10675 2.3377C9.67164 2.3377 10.5392 4.32001 9.56431 5.64629C10.3358 5.93613 10.9644 6.57404 11.2858 7.39246C12.0774 5.84297 11.8236 3.90789 10.6791 2.65925C9.25892 1.10976 6.95575 1.10976 5.53733 2.65925C4.39286 3.90789 4.13728 5.84297 4.9307 7.39246C5.25032 6.57469 5.88067 5.93613 6.65214 5.64629C5.67609 4.32001 6.54363 2.3377 8.10675 2.3377ZM8.41095 6.38319C8.31192 6.40001 8.21111 6.40907 8.10675 6.40907C8.00416 6.40907 7.90335 6.40001 7.80432 6.38319H7.57899C6.56201 6.38319 5.70158 7.20484 5.55156 8.28527C6.97177 9.8147 9.24943 9.80758 10.6613 8.28527C10.5119 7.20484 9.65267 6.38319 8.63391 6.38319H8.41095ZM8.83968 3.57341C8.18917 2.86369 7.07139 3.36832 7.07139 4.37306C7.07139 4.6849 7.18761 4.96698 7.37381 5.17271C7.51344 5.32426 7.68935 5.42986 7.88141 5.47743H8.33208C8.52895 5.42956 8.70329 5.32152 8.83968 5.17271C9.24469 4.73083 9.24469 4.01529 8.83968 3.57341ZM8.38249 10.3258C5.8528 10.4927 3.64036 8.31956 3.64036 5.46255C3.64036 2.77247 5.64051 0.5896 8.10675 0.5896C10.5742 0.5896 12.5731 2.77182 12.5731 5.46255C12.5731 8.04654 10.7325 10.1647 8.38249 10.3258ZM14.2015 19.318C14.3895 19.177 14.6468 19.2281 14.7761 19.4338C14.9071 19.6389 14.8585 19.9197 14.6717 20.0607L11.9707 22.089C11.7827 22.23 11.5253 22.1789 11.3961 21.9731C11.3649 21.9246 11.3429 21.8698 11.3312 21.8119C11.3196 21.7541 11.3186 21.6942 11.3283 21.6359C11.338 21.5776 11.3582 21.522 11.3878 21.4723C11.4173 21.4226 11.4556 21.3797 11.5004 21.3462L14.2015 19.318ZM14.0402 9.75389C14.227 9.89686 14.272 10.1776 14.141 10.3808C14.0117 10.5859 13.7526 10.6357 13.5664 10.4927L12.0483 9.3353C11.8615 9.19426 11.8165 8.91153 11.9475 8.70839C12.0768 8.50459 12.3359 8.45542 12.5221 8.59646L14.0402 9.75389ZM12.1325 14.26C12.3614 14.26 12.5476 14.4638 12.5476 14.7129C12.5476 14.962 12.3608 15.1658 12.1325 15.1658H8.73887C8.50998 15.1658 8.32378 14.962 8.32378 14.7129C8.32378 14.4632 8.51057 14.26 8.73887 14.26H12.1325ZM25.393 29.3641L25.3627 28.1814C25.3609 28.1245 25.3188 28.0805 25.2666 28.0825L18.847 28.2753C18.7948 28.2772 18.7544 28.3231 18.7562 28.3801L18.7847 29.5627C18.7865 29.6196 18.8303 29.6636 18.8819 29.6617L25.3016 29.4689C25.3544 29.467 25.3947 29.421 25.393 29.3641ZM26.1899 28.1575L26.2202 29.3389C26.2338 29.8907 25.83 30.3565 25.3242 30.3714L18.9045 30.5642C18.3987 30.5791 17.9735 30.1385 17.9598 29.5867L17.9296 28.4053C17.9177 27.9815 18.1549 27.6037 18.503 27.4458C18.0743 26.7413 17.6236 26.0426 17.1735 25.1297C16.306 23.3693 15.7095 21.2874 17.0039 19.8886C16.869 19.9628 16.7182 19.9956 16.5675 19.9837C16.4168 19.9717 16.2719 19.9154 16.1483 19.8207C16.1346 19.8116 16.1228 19.8006 16.1115 19.7916L15.4912 19.2947C15.1212 18.9977 15.0388 18.4291 15.3133 18.0202L15.4966 17.7375C15.2428 17.3926 15.0127 16.9818 14.8478 16.5729C14.8295 16.525 14.3349 16.7909 13.9133 16.4539C13.8244 16.3827 13.7493 16.2931 13.6922 16.1902C13.6351 16.0873 13.5972 15.9731 13.5806 15.8541L13.4597 14.9976C13.3891 14.5026 13.7051 14.0329 14.1606 13.9579L14.4713 13.9009C14.5081 13.472 14.6261 12.9784 14.769 12.5785C14.7708 12.5747 14.7708 12.5714 14.7708 12.5695L14.5318 12.3786C14.1671 12.1147 14.0544 11.5311 14.3266 11.108H14.3248C14.3349 11.0931 14.3432 11.0802 14.3533 11.0679L14.8069 10.3911C15.0791 9.98744 15.6021 9.89751 15.9751 10.1971L16.2354 10.397C16.5551 10.1162 16.9245 9.87034 17.3028 9.68919C17.3449 9.66913 17.103 9.12956 17.4119 8.66957C17.4767 8.57257 17.5585 8.49055 17.6526 8.42826C17.7466 8.36596 17.8511 8.32462 17.9598 8.30662L18.7467 8.17464C19.2004 8.09765 19.6291 8.44248 19.6997 8.93935L19.7519 9.27836C20.145 9.32042 20.5957 9.44722 20.9639 9.60314C21.0125 9.6232 21.1875 9.05322 21.7052 8.96523C21.924 8.9291 22.1471 8.98913 22.3254 9.13215L22.9676 9.64584C23.3388 9.9428 23.4213 10.5134 23.1473 10.9204L22.9641 11.2031C23.2214 11.5531 23.4468 11.9568 23.611 12.3696C23.6294 12.4155 24.1251 12.1515 24.5474 12.4886C24.6363 12.5593 24.7114 12.6486 24.7685 12.7512C24.8256 12.8538 24.8635 12.9677 24.88 13.0864L25.001 13.9449C25.0698 14.4399 24.7555 14.9076 24.2983 14.9846L23.9876 15.0415C23.9508 15.4705 23.8346 15.9622 23.6917 16.3639C23.6715 16.417 24.1957 16.6059 24.2764 17.1727C24.3333 17.5796 24.1601 17.7944 23.9656 18.0823C24.0125 18.1852 24.0463 18.2951 24.0664 18.4161C24.4667 18.288 24.9269 18.3682 25.2904 18.6141C25.6889 18.8839 25.9996 19.3639 26.018 20.0737C26.0903 22.9404 25.9794 21.2731 26.0737 24.136C26.0737 24.1728 26.0701 24.2091 26.0654 24.244L25.489 27.211C25.8857 27.3158 26.1781 27.7007 26.1899 28.1575ZM19.4275 27.354L24.6452 27.1981L25.2435 24.1081C25.1967 22.6796 25.2032 22.4118 25.2115 22.0948C25.218 21.8108 25.2269 21.4821 25.1913 20.0976C25.1658 19.1071 24.1578 19.155 24.1358 19.4247L24.2283 21.3449C24.2402 21.5947 24.0635 21.8069 23.837 21.8198C23.6081 21.8328 23.4136 21.64 23.4017 21.3909L23.2944 19.1368L23.2558 18.6102C23.2191 18.0913 22.1398 18.0493 22.1629 18.4912L22.2774 21.0493C22.2893 21.2971 22.1125 21.5093 21.8842 21.5203C21.6553 21.5332 21.4626 21.3404 21.452 21.0913L21.3274 18.4634C21.2717 18.1716 20.8216 18.1166 20.5577 18.2026C20.4314 18.2447 20.3259 18.3146 20.2802 18.4116L20.3674 21.1114C20.3757 21.3611 20.1978 21.5701 19.9689 21.5772C19.9146 21.5795 19.8603 21.57 19.8094 21.5493C19.7584 21.5287 19.7117 21.4973 19.6718 21.4569C19.632 21.4165 19.5999 21.3679 19.5773 21.314C19.5547 21.26 19.5421 21.2017 19.5402 21.1424L19.4494 18.3585L19.3771 15.4737C19.3634 14.9678 18.7924 14.7219 18.4674 15.0959C18.3713 15.2065 18.3192 15.3543 18.3228 15.5067L18.3767 17.1571C18.4004 17.718 18.4135 18.0538 18.4105 19.0243L18.407 19.6719L18.4811 22.5897C18.4826 22.6489 18.4735 22.7079 18.4542 22.7633C18.4348 22.8186 18.4057 22.8693 18.3684 22.9124C18.3311 22.9554 18.2865 22.9901 18.2369 23.0143C18.1873 23.0385 18.1339 23.0519 18.0796 23.0536C17.8507 23.0588 17.661 22.8627 17.6545 22.6156L17.6023 20.5395C16.6897 21.605 17.2008 23.2755 17.9029 24.7008C18.2694 25.4435 18.6863 26.1241 19.0059 26.641C19.179 26.9231 19.3249 27.1612 19.4275 27.354ZM21.7372 17.5809C22.1843 17.2141 22.8567 17.2031 23.3578 17.458L23.4539 17.3001C23.1983 17.0983 22.9884 16.9663 22.8959 16.6195C22.8455 16.4325 22.852 16.2268 22.9214 16.0346C23.0459 15.6827 23.1283 15.321 23.1651 14.9432C23.2072 14.5285 23.493 14.2005 23.8713 14.1384L24.1809 14.0834L24.0581 13.2139C24.0214 13.1848 23.5992 13.3918 23.2179 13.1628C23.0601 13.0689 22.9321 12.9188 22.855 12.728C22.7138 12.376 22.5407 12.0661 22.3207 11.7672C22.0817 11.4444 22.0734 10.9915 22.2987 10.6558L22.4802 10.375L21.8315 9.85805C21.7846 9.86516 21.6198 10.3387 21.2029 10.4707C21.0315 10.5238 20.843 10.5186 20.6668 10.4429C20.3442 10.3051 20.0128 10.2171 19.6665 10.1751C19.4824 10.1545 19.31 10.0676 19.1763 9.928C19.0427 9.78843 18.9556 9.60421 18.9288 9.40452L18.8784 9.06681L18.0814 9.20073C18.0547 9.24278 18.2445 9.70342 18.0346 10.1194C17.9486 10.2902 17.811 10.4313 17.6361 10.5154C17.3135 10.6693 17.0294 10.8583 16.7555 11.0983C16.4596 11.3571 16.0445 11.3681 15.7367 11.1222L15.4794 10.9223L15.0168 11.6081L15.0068 11.6359C15.257 11.841 15.4705 11.9568 15.5665 12.3178C15.6169 12.5048 15.6104 12.7086 15.541 12.9007C15.4147 13.2527 15.3341 13.6163 15.2955 13.9935C15.2552 14.4082 14.9676 14.7342 14.5893 14.7983L14.2815 14.8513L14.4078 15.7222L14.7156 15.671C15.0922 15.6089 15.4551 15.827 15.6081 16.2087C15.7492 16.5587 15.9223 16.8686 16.1423 17.1681C16.3795 17.4929 16.3896 17.9458 16.1643 18.2796L15.981 18.5623L16.6096 19.065V19.067L16.6351 19.076C16.8231 18.8043 16.9292 18.5714 17.2601 18.4672C17.3645 18.4342 17.4736 18.4232 17.5827 18.4362C17.5809 17.9852 17.5708 17.7064 17.559 17.3706C16.0125 16.3109 15.6039 14.0381 16.6914 12.4187C17.7221 10.8854 19.6937 10.5535 21.1021 11.6799C22.852 13.0793 22.8063 15.9311 21.0452 17.2768C21.2984 17.315 21.5391 17.414 21.7372 17.5809ZM17.3147 19.5968C17.4003 19.5248 17.4896 19.4581 17.5821 19.3969V19.373L17.4896 19.3342L17.3129 19.5962H17.3147V19.5968ZM17.5145 16.1653C17.508 15.9803 17.5026 15.7713 17.4961 15.5307C17.4641 14.2341 18.898 13.5076 19.7785 14.4192C20.0306 14.6799 20.1936 15.0448 20.2037 15.4498L20.2357 16.7502C21.8143 15.9285 22.0343 13.5483 20.6105 12.409C19.5769 11.5822 18.1176 11.8261 17.3597 12.9557C16.7063 13.9281 16.7703 15.2757 17.5145 16.1653Z" fill="#273339"/>
</svg>
