<svg width="28" height="31" viewBox="0 0 28 31" fill="none" xmlns="http://www.w3.org/2000/svg">
<path d="M22.3447 12.3354C25.3172 12.3354 27.7351 9.64401 27.7351 6.33545C27.7351 3.02689 25.3171 0.335449 22.3447 0.335449C20.1863 0.335449 18.3252 1.75807 17.4652 3.80251L16.0218 3.20945C16.0389 3.08645 16.056 2.96339 16.056 2.83545C16.056 1.45701 15.0484 0.335449 13.81 0.335449C12.5716 0.335449 11.564 1.45701 11.564 2.83545C11.564 4.21389 12.5716 5.33545 13.81 5.33545C14.6145 5.33545 15.3162 4.85795 15.7128 4.14845L17.1538 4.74045C17.0272 5.24951 16.9544 5.78245 16.9544 6.33545C16.9544 6.99045 17.0522 7.61939 17.2274 8.20995L12.2872 10.5406C11.3826 8.63689 9.58718 7.33545 7.52127 7.33545C6.85185 7.33545 6.21315 7.47857 5.62117 7.72751L4.37864 4.82107C4.91992 4.36401 5.27529 3.64795 5.27529 2.83545C5.27529 1.45701 4.26768 0.335449 3.02931 0.335449C1.79093 0.335449 0.783325 1.45701 0.783325 2.83545C0.783325 4.21389 1.79093 5.33545 3.02931 5.33545C3.21617 5.33545 3.3954 5.30251 3.5693 5.25389L4.81031 8.15745C3.21067 9.19945 2.13091 11.1274 2.13091 13.3354C2.13091 15.4094 3.08153 17.24 4.52255 18.3179L3.70085 19.9619C3.48704 19.8869 3.26457 19.8354 3.02931 19.8354C1.79093 19.8354 0.783325 20.957 0.783325 22.3354C0.783325 23.7139 1.79093 24.8354 3.02931 24.8354C4.26768 24.8354 5.27529 23.7139 5.27529 22.3354C5.27529 21.5784 4.96495 20.907 4.48611 20.4485L5.30948 18.801C5.98507 19.1414 6.73254 19.3354 7.52127 19.3354C8.75392 19.3354 9.88769 18.8674 10.7968 18.0893L12.5648 20.2544C11.6682 21.3264 11.1148 22.7586 11.1148 24.3354C11.1148 24.6414 11.1422 24.9394 11.1817 25.2329L9.1016 25.7824C8.74364 24.9304 7.97131 24.3354 7.07207 24.3354C5.83369 24.3354 4.82609 25.457 4.82609 26.8354C4.82609 28.2139 5.83369 29.3354 7.07207 29.3354C8.31045 29.3354 9.31805 28.2139 9.31805 26.8354C9.31805 26.8079 9.31126 26.782 9.31081 26.7544L11.3871 26.2066C12.095 28.6008 14.12 30.3354 16.5052 30.3354C19.4776 30.3354 21.8955 27.644 21.8955 24.3354C21.8955 23.3096 21.6624 22.3435 21.2526 21.4986L23.8913 19.5889C24.2993 20.0489 24.8642 20.3354 25.4891 20.3354C26.7275 20.3354 27.7351 19.2139 27.7351 17.8354C27.7351 16.457 26.7275 15.3354 25.4891 15.3354C24.2507 15.3354 23.2431 16.457 23.2431 17.8354C23.2431 18.1584 23.3028 18.4653 23.4034 18.749L20.7587 20.6628C20.2267 19.901 19.5382 19.2924 18.7512 18.8879L20.9436 12.1226C21.3911 12.2568 21.8596 12.3354 22.3447 12.3354ZM13.81 4.33545C13.0672 4.33545 12.4624 3.66232 12.4624 2.83545C12.4624 2.00857 13.0672 1.33545 13.81 1.33545C14.5529 1.33545 15.1576 2.00857 15.1576 2.83545C15.1576 3.66232 14.5529 4.33545 13.81 4.33545ZM1.68172 2.83545C1.68172 2.00857 2.28645 1.33545 3.02931 1.33545C3.77216 1.33545 4.3769 2.00857 4.3769 2.83545C4.3769 3.66232 3.77216 4.33545 3.02931 4.33545C2.28645 4.33545 1.68172 3.66232 1.68172 2.83545ZM3.02931 23.8354C2.28645 23.8354 1.68172 23.1623 1.68172 22.3354C1.68172 21.5086 2.28645 20.8354 3.02931 20.8354C3.77216 20.8354 4.3769 21.5086 4.3769 22.3354C4.3769 23.1623 3.77216 23.8354 3.02931 23.8354ZM7.07207 28.3354C6.32921 28.3354 5.72448 27.6623 5.72448 26.8354C5.72448 26.0086 6.32921 25.3354 7.07207 25.3354C7.81493 25.3354 8.41966 26.0086 8.41966 26.8354C8.41966 27.6623 7.81493 28.3354 7.07207 28.3354ZM25.4891 16.3354C26.232 16.3354 26.8367 17.0086 26.8367 17.8354C26.8367 18.6623 26.232 19.3354 25.4891 19.3354C24.7463 19.3354 24.1415 18.6623 24.1415 17.8354C24.1415 17.0086 24.7463 16.3354 25.4891 16.3354ZM19.6994 10.3674C19.8998 9.21095 20.8158 8.33545 21.8955 8.33545H22.7939C23.8737 8.33545 24.7897 9.21095 24.9901 10.3674C24.2471 10.9729 23.3344 11.3354 22.3447 11.3354C21.3551 11.3354 20.4425 10.9729 19.6994 10.3674ZM22.3447 7.33545C21.6019 7.33545 20.9972 6.66232 20.9972 5.83545C20.9972 5.00857 21.6019 4.33545 22.3447 4.33545C23.0876 4.33545 23.6923 5.00857 23.6923 5.83545C23.6923 6.66232 23.0876 7.33545 22.3447 7.33545ZM22.3447 1.33545C24.8217 1.33545 26.8367 3.57839 26.8367 6.33545C26.8367 7.58545 26.4193 8.72751 25.7352 9.60501C25.4204 8.68239 24.7642 7.94607 23.9465 7.58251C24.3442 7.13132 24.5907 6.51545 24.5907 5.83545C24.5907 4.45701 23.5831 3.33545 22.3447 3.33545C21.1064 3.33545 20.0988 4.45701 20.0988 5.83545C20.0988 6.51539 20.3453 7.13132 20.743 7.58251C19.9253 7.94607 19.269 8.68239 18.9543 9.60501C18.2702 8.72751 17.8528 7.58545 17.8528 6.33545C17.8528 3.57839 19.8678 1.33545 22.3447 1.33545ZM3.02931 13.3354C3.02931 10.5784 5.04434 8.33545 7.52127 8.33545C9.99819 8.33545 12.0132 10.5784 12.0132 13.3354C12.0132 14.5894 11.5932 15.7344 10.9056 16.613C10.592 15.687 9.93441 14.947 9.11451 14.5825C9.51171 14.1313 9.75827 13.5154 9.75827 12.8354C9.75827 11.457 8.75066 10.3354 7.51228 10.3354C6.27391 10.3354 5.2663 11.457 5.2663 12.8354C5.2663 13.5154 5.5128 14.1313 5.91045 14.5825C5.09522 14.9444 4.43989 15.678 4.124 16.5969C3.44386 15.7205 3.02931 14.5821 3.02931 13.3354ZM6.1647 12.8354C6.1647 12.0086 6.76943 11.3354 7.51228 11.3354C8.25514 11.3354 8.85987 12.0086 8.85987 12.8354C8.85987 13.6623 8.25514 14.3354 7.51228 14.3354C6.76943 14.3354 6.1647 13.6623 6.1647 12.8354ZM4.86843 17.3608C5.07085 16.2075 5.98547 15.3354 7.06309 15.3354H7.96148C9.0432 15.3354 9.96097 16.2139 10.1586 17.374C9.41699 17.9759 8.5072 18.3354 7.52127 18.3354C6.5281 18.3354 5.61263 17.9704 4.86843 17.3608ZM13.8524 28.3608C14.0548 27.2075 14.9694 26.3354 16.047 26.3354H16.9454C18.0271 26.3354 18.9449 27.2139 19.1425 28.374C18.4009 28.9759 17.4911 29.3354 16.5052 29.3354C15.512 29.3354 14.5966 28.9704 13.8524 28.3608ZM16.4962 25.3354C15.7534 25.3354 15.1486 24.6623 15.1486 23.8354C15.1486 23.0086 15.7534 22.3354 16.4962 22.3354C17.2391 22.3354 17.8438 23.0086 17.8438 23.8354C17.8438 24.6623 17.2391 25.3354 16.4962 25.3354ZM20.9972 24.3354C20.9972 25.5894 20.5772 26.7344 19.8895 27.613C19.5758 26.687 18.9183 25.947 18.0984 25.5825C18.4956 25.1313 18.7422 24.5154 18.7422 23.8354C18.7422 22.457 17.7346 21.3354 16.4962 21.3354C15.2578 21.3354 14.2502 22.457 14.2502 23.8354C14.2502 24.5154 14.4967 25.1313 14.8944 25.5825C14.0791 25.9444 13.4238 26.678 13.1079 27.5969C12.4278 26.7205 12.0132 25.5821 12.0132 24.3354C12.0132 21.5784 14.0283 19.3354 16.5052 19.3354C18.9821 19.3354 20.9972 21.5784 20.9972 24.3354ZM17.9063 18.5483C17.4588 18.4141 16.9904 18.3354 16.5052 18.3354C15.2725 18.3354 14.1388 18.8034 13.2297 19.5816L11.4616 17.4165C12.3583 16.3445 12.9116 14.9123 12.9116 13.3354C12.9116 12.6804 12.8138 12.0515 12.6386 11.4609L17.5788 9.13032C18.1322 10.2949 19.0203 11.2295 20.0992 11.7829L17.9063 18.5483Z" fill="#273339"/>
</svg>
